<svg width="192" height="168" viewBox="0 0 192 168" fill="none" xmlns="http://www.w3.org/2000/svg">
<path d="M74.5 20.971L139.019 132.721H9.98111L74.5 20.971Z" fill="#29ABE2"/>
<path d="M113.5 7.97104L183.215 133.221H43.785L113.5 7.97104Z" fill="#0071BC"/>
<path d="M113.617 12.2071C113.617 13.2926 113.428 14.1651 112.94 15.1419C112.381 16.2583 111.382 17.0651 110.82 18.1896C110.518 18.7944 110.148 19.3822 109.842 19.9956C109.272 21.1355 108.934 22.4039 107.985 23.313C107.642 23.6419 107.629 24.0327 107.547 24.4856C107.468 24.9182 107.305 25.3007 107.208 25.7273C107.008 26.6072 106.218 27.1577 105.715 27.8719C105.136 28.6958 104.708 29.8156 104.361 30.7691C104.079 31.545 103.8 32.3552 103.433 33.0894C103.115 33.7253 102.475 34.378 102.323 35.0647C102.181 35.7035 101.629 36.4596 101.338 37.0401C100.842 38.0329 100.745 39.7731 101.144 40.8089C101.42 41.5264 102.16 41.5552 102.818 41.5552C103.9 41.5552 104.57 39.7772 104.913 38.9214C105.427 37.6363 105.978 36.373 106.443 35.071C106.814 34.0318 108.026 31.9039 109.29 31.8477C110.719 31.7842 111.031 32.5034 111.303 33.8921C111.712 35.9853 111.472 38.2858 111.472 40.4138C111.472 42.685 112.192 44.7812 112.488 47.0109C112.634 48.1104 112.795 49.1991 113.027 50.2843C113.135 50.7851 114.345 51.3682 114.746 51.689C115.11 51.9802 116.82 53.4308 117.285 52.6547C117.662 52.0269 117.455 50.9357 117.455 50.2467C117.455 49.1023 117.373 47.9486 117.335 46.8039C117.265 44.659 116.907 42.5302 116.89 40.3888C116.88 39.091 116.777 37.8003 116.777 36.5008C116.777 35.7868 116.65 34.9358 116.865 34.2432C117.247 33.0121 119.467 35.2856 119.687 35.6103C121.31 38 121.462 40.8867 122.697 43.4427C122.955 43.9769 123.292 44.7582 123.776 45.1421C124.103 45.4021 124.373 45.6371 124.616 45.9824C125.469 47.1947 125.243 45.2048 125.243 44.6906C125.243 43.243 125.085 41.885 124.854 40.4577C124.721 39.6308 124.34 38.7255 124.34 37.8929C124.34 37.3446 126.357 38.9894 126.548 39.2224C126.793 39.523 126.997 39.7625 127.055 40.1442C127.074 40.2622 127.238 40.6905 127.331 40.765C127.354 40.7831 127.466 39.6929 127.325 39.4105C127.141 39.0414 127.003 38.6504 126.798 38.2817C126.637 37.9909 126.297 37.7245 126.259 37.3787C126.21 36.9393 125.603 36.628 125.469 36.1935C125.209 35.3492 124.304 34.7081 123.939 33.8732C123.569 33.0287 123.52 32.1035 123.098 31.2833C122.555 30.2256 122.605 28.9939 122.195 27.8469C121.697 26.4518 120.67 25.4683 119.656 24.4543C119.377 24.1757 119.224 23.6522 119.123 23.2691C118.908 22.4563 118.641 21.6036 118.22 20.8736C117.786 20.1237 117.485 19.3827 117.172 18.5847C116.863 17.7934 116.773 16.8312 116.157 16.2142C115.938 15.9961 115.798 15.8094 115.736 16.2331C115.367 18.7803 115.774 21.3831 115.373 23.9463C114.909 26.9041 113.902 29.6685 112.413 32.2616C111.572 33.726 110.74 35.4498 109.622 36.7391C109.548 36.825 109.442 36.98 109.465 36.7516C109.58 35.6352 109.928 34.5689 110.331 33.5283C111.358 30.8721 112.707 28.2134 113.429 25.4514C113.556 24.9642 113.617 24.4491 113.617 23.9463C113.617 23.4113 112.812 24.3715 112.551 24.4229C112.237 24.4845 112.696 23.4315 112.714 23.3819C112.993 22.611 113.251 21.8339 113.56 21.0742C113.859 20.3414 114.127 19.6162 114.52 18.9296C114.945 18.185 114.112 20.6051 113.761 21.3878C112.581 24.0219 111.066 26.515 109.792 29.1073C109.456 29.79 109.104 30.4653 108.776 31.1516C108.638 31.4384 108.459 32.2916 108.337 31.9982C108.204 31.6802 108.977 30.6573 109.114 30.4054C109.695 29.3355 110.216 28.2347 110.782 27.1571C111.13 26.4947 111.96 24.2172 113.04 25.1002C113.925 25.8233 114.239 27.0084 114.457 28.0726C114.909 30.2796 115.052 32.6089 114.921 34.8578C114.81 36.7573 114.232 39.2468 113.009 40.7901C112.906 40.9191 112.833 41.2463 112.689 41.1664C112.452 41.0348 112.601 39.6562 112.601 39.5108C112.601 36.6531 112.44 33.8123 112.381 30.9572C112.371 30.4336 112.265 29.7281 112.425 29.2139C112.559 28.7862 112.913 28.9721 113.059 29.2704C113.37 29.9051 113.533 30.6471 113.598 31.346C113.756 33.0536 113.751 34.8135 113.705 36.5259C113.649 38.5863 113.329 40.6333 113.14 42.6839C113.065 43.5019 112.961 44.3473 112.94 45.1672C112.913 46.1621 112.959 44.3122 112.965 44.189C113.139 40.3595 113.575 36.5317 114.238 32.757C114.613 30.62 115.017 28.066 116.031 26.0973C116.37 25.4394 116.61 25.7141 116.846 26.2478C117.577 27.9001 118.161 29.5911 119.016 31.1893C119.298 31.7159 119.916 33.3788 119.825 32.7884C119.627 31.5001 118.794 30.2228 118.182 29.101C117.557 27.9548 118.114 28.7535 118.471 29.3393C119.114 30.3958 119.887 31.4106 120.615 32.4121" stroke="white" stroke-width="5" stroke-linecap="round"/>
<path d="M73.7394 25.1963C73.3819 25.5708 73.1188 26.0198 72.8558 26.4631C72.6222 26.8569 72.465 27.2853 72.2464 27.6873C71.9319 28.2656 71.5437 28.7738 71.1686 29.3107C70.7633 29.8908 70.4663 30.5741 70.1679 31.2135C69.8213 31.9564 69.4013 32.6614 69.0236 33.3878C68.5277 34.3413 68.1139 35.3383 67.5918 36.2779C67.1739 37.0301 66.8458 37.781 66.5273 38.5773C66.4318 38.8161 66.3606 39.4455 66.5539 39.6631C66.6176 39.7347 66.6574 39.8547 66.7695 39.8547C67.1663 39.8547 67.3996 39.4971 67.6504 39.2373C68.4487 38.4099 69.0503 37.3789 69.5931 36.3737C69.9758 35.6651 70.1837 34.9259 70.4846 34.1861C70.6805 33.7047 70.9594 33.0873 71.4853 32.8901C71.9767 32.7058 72.2414 32.9718 72.3981 33.4037C72.8285 34.5903 72.906 35.8745 72.9224 37.1242C72.942 38.6283 72.925 40.1335 72.925 41.6377C72.925 42.5568 72.8531 43.4938 73.1645 44.3762C73.2665 44.6649 73.3711 45.2074 73.75 45.2571C74.5924 45.3676 74.8739 43.88 74.9316 43.3064C75.0569 42.0629 74.9761 40.7944 74.9849 39.546C74.9909 38.6844 75.1286 37.8353 75.1286 36.9699C75.1286 36.671 74.9737 35.7196 75.235 35.4582C75.4997 35.1936 76.0732 35.6353 76.2623 35.7936C77.2747 36.6411 77.6473 38.0058 78.7719 38.7556C78.9921 38.9024 79.157 39.0806 79.4399 39.0882C80.0577 39.1049 80.3548 38.595 80.3979 38.0344C80.429 37.6302 80.5149 37.1751 80.3873 36.7782C80.3562 36.6815 80.2073 36.4238 80.3979 36.4057C80.7727 36.37 81.1927 36.2853 81.5609 36.411C81.8117 36.4966 82.045 36.7889 82.3141 36.7889C82.5187 36.7889 82.6415 36.4442 82.6946 36.2806C82.821 35.8908 82.8345 35.3998 82.7824 34.9952C82.727 34.5644 82.4689 34.3052 82.1118 34.077C81.7125 33.8219 81.3521 33.5664 80.9941 33.2547C80.4001 32.7377 80.0649 31.9329 79.7033 31.2561C79.2389 30.3868 78.7189 29.5681 78.2157 28.7252C78.1488 28.6131 78.0581 28.4971 78.0507 28.3633C78.0328 28.0423 77.8807 27.798 77.718 27.5249C77.4704 27.1093 77.16 26.7439 76.9116 26.33C76.6363 25.8712 76.4315 25.4561 76.2676 24.9462C76.1383 24.544 76.1269 24.2424 75.8099 23.9136C75.6958 23.7953 75.5817 23.7218 75.4879 23.5862C75.4234 23.4932 75.1701 22.8182 75.251 23.1418C75.6999 24.9374 76.2264 26.6986 76.8744 28.4324C77.2653 29.4785 77.5737 30.5527 77.8963 31.6207C77.9482 31.7923 78.012 31.9591 78.0613 32.1316C78.0751 32.1799 77.685 31.735 77.6355 31.6792C76.4762 30.3727 75.3713 29.0192 74.2237 27.7033C74.139 27.6061 74.0484 27.5143 73.9683 27.4132C73.9461 27.3851 73.9121 27.3053 73.8937 27.336C73.87 27.3756 73.9686 27.5187 73.9736 27.5276C74.1883 27.9127 74.3826 28.3073 74.5697 28.7066C75.2895 30.2428 75.8013 31.9203 76.2783 33.5474C76.3419 33.7647 76.4731 34.0039 76.5071 34.2287C76.527 34.3602 75.713 33.7529 75.6555 33.7071C74.9201 33.1219 74.1524 32.5777 73.4041 32.0092C73.2729 31.9096 72.6416 31.5064 72.6323 31.3013C72.6264 31.1714 73.6846 31.6837 73.6862 31.6845C74.5902 32.1522 75.4855 32.6368 76.39 33.103C76.5043 33.1619 78.1465 33.886 78.1465 33.7124C78.1465 33.5273 78.074 33.3579 77.9815 33.2015C77.6761 32.685 77.3261 32.2086 77.0527 31.6712C76.2152 30.0251 75.5896 28.1798 75.0754 26.4099C74.819 25.5275 74.5603 24.6001 74.4127 23.69C74.3167 23.0979 74.3621 21.2911 74.3621 21.891" stroke="white" stroke-width="5" stroke-linecap="round"/>
<path d="M99.8025 36.2613C99.8025 33.804 100.921 32 102.209 29.9379C102.772 29.0379 103.552 28.3237 103.962 27.3298C105.018 24.774 106.33 22.2261 107.635 19.7905C108.847 17.5311 110.39 15.3786 111.468 13.0562C112.019 11.8699 112.371 10.4631 112.785 9.22364C113.34 7.55613 113.682 5.85077 114.177 4.17506C114.243 3.95048 114.563 2.51641 114.781 3.16869C115.824 6.29826 116.232 9.59514 117.062 12.7795C118.08 16.6872 119.944 20.3857 122.546 23.4972C123.122 24.1857 123.28 24.3082 123.502 25.1745C123.739 26.0937 124.245 26.9141 124.559 27.8078C124.952 28.9273 125.287 30.1953 125.993 31.1372C126.512 31.8293 127.342 32.2512 127.955 32.8648C128.464 33.3735 129.092 33.7836 129.473 34.3827C129.945 35.1236 130.316 35.9254 130.664 36.7225C130.99 37.4663 131.238 38.4069 131.36 39.2049C131.45 39.7856 131.93 40.4167 131.796 41.0163C131.745 41.2479 131.09 41.5311 130.882 41.6118C129.767 42.0456 128.572 41.7076 127.536 41.2428C125.938 40.5253 124.656 39.2803 122.823 39.2803C122.329 39.2803 121.134 39.0599 120.701 39.381C120.23 39.7311 120.043 40.7777 119.913 41.3266C119.474 43.1784 119.661 44.4967 121.003 45.8385C121.927 46.7625 122.817 47.7192 123.737 48.6395C124.341 49.2433 121.413 48.666 120.986 48.4215C119.26 47.4308 118.607 45.5377 117.456 44.027C117.405 43.9604 116.46 43.1155 116.416 43.3142C116.161 44.463 116.411 45.8765 116.332 47.0545C116.233 48.5337 116.255 50.031 116.022 51.4993C115.828 52.715 115.252 53.344 114.395 54.1326C113.464 54.9886 111.86 55.4403 111.116 54.1997C110.285 52.8155 110.406 50.2979 110.252 48.7402C109.897 45.1544 109.185 41.6817 108.642 38.123C108.461 36.9358 108.151 35.7175 108.105 34.5169C108.068 33.5539 107.217 34.9561 107.048 35.2046C105.686 37.2145 104.436 39.4954 102.369 40.8738C101.816 41.2421 97.991 43.0151 97.991 41.5447C97.991 40.4285 98.6994 37.2831 99.9534 36.8651" stroke="white" stroke-width="5" stroke-linecap="round"/>
</svg>
